<svg id="Layer_1" data-name="Layer 1" xmlns="http://www.w3.org/2000/svg" viewBox="0 0 133.99 115.32"><defs><style>.cls-1{fill:#777;}</style></defs><path class="cls-1" d="M98.1,7a30,30,0,0,1,20.18,8.21,26.08,26.08,0,0,1,8.7,18,6.48,6.48,0,0,0,0,1.32c.36,6-1.11,12.35-4.5,19.42-4.12,8.6-10.2,16.69-19.15,25.46A204.8,204.8,0,0,1,67,107.15c-14.31-8.7-31.38-20.22-44.07-34.52C15.74,64.53,6.27,51.76,7,34.41c0-.11,0-.21,0-.31a26,26,0,0,1,8.64-18.91A29.63,29.63,0,0,1,35.75,7c10.87,0,21,6.48,25.1,16.12a7,7,0,0,0,12.86,0A26.23,26.23,0,0,1,98.1,7m0-7A33.34,33.34,0,0,0,67.28,20.35,34.34,34.34,0,0,0,35.75,0C17,0,.05,15.55.05,34.1-.82,53.67,9.66,68.23,17.69,77.28c13.54,15.25,31.88,27.64,49.31,38,14.56-8.62,29.07-19.07,41.18-30.93,8.25-8.08,15.53-16.92,20.56-27.43,3.5-7.31,5.66-14.92,5.18-22.86H134C134,15.55,116.81,0,98.1,0Z"/></svg>